<mxfile host="app.diagrams.net" modified="2024-07-17T03:46:54.915Z" agent="Mozilla/5.0 (Macintosh; Intel Mac OS X 10_15_7) AppleWebKit/537.36 (KHTML, like Gecko) Chrome/124.0.0.0 Safari/537.36" etag="kZkEx6Jv-ze_EnXHT93p" version="24.6.4" type="github">
  <diagram name="페이지-1" id="Kt_VMQhp2mbseGla3dJh">
    <mxGraphModel dx="1242" dy="819" grid="1" gridSize="10" guides="1" tooltips="1" connect="1" arrows="1" fold="1" page="1" pageScale="1" pageWidth="827" pageHeight="1169" math="0" shadow="0">
      <root>
        <mxCell id="0" />
        <mxCell id="1" parent="0" />
        <mxCell id="zMHxKu56YJylVByiKoJj-14" style="edgeStyle=orthogonalEdgeStyle;rounded=0;orthogonalLoop=1;jettySize=auto;html=1;entryX=0.5;entryY=1;entryDx=0;entryDy=0;" edge="1" parent="1" source="zMHxKu56YJylVByiKoJj-3" target="zMHxKu56YJylVByiKoJj-13">
          <mxGeometry relative="1" as="geometry">
            <Array as="points">
              <mxPoint x="240" y="220" />
              <mxPoint x="480" y="220" />
            </Array>
          </mxGeometry>
        </mxCell>
        <mxCell id="zMHxKu56YJylVByiKoJj-3" value="Audience" style="rounded=0;whiteSpace=wrap;html=1;" vertex="1" parent="1">
          <mxGeometry x="190" y="250" width="100" height="40" as="geometry" />
        </mxCell>
        <mxCell id="zMHxKu56YJylVByiKoJj-4" value="buy" style="rounded=0;whiteSpace=wrap;html=1;" vertex="1" parent="1">
          <mxGeometry x="190" y="290" width="100" height="40" as="geometry" />
        </mxCell>
        <mxCell id="zMHxKu56YJylVByiKoJj-15" style="edgeStyle=orthogonalEdgeStyle;rounded=0;orthogonalLoop=1;jettySize=auto;html=1;exitX=0.5;exitY=0;exitDx=0;exitDy=0;" edge="1" parent="1" source="zMHxKu56YJylVByiKoJj-6">
          <mxGeometry relative="1" as="geometry">
            <mxPoint x="480" y="190" as="targetPoint" />
            <Array as="points">
              <mxPoint x="455" y="221" />
              <mxPoint x="480" y="221" />
            </Array>
          </mxGeometry>
        </mxCell>
        <mxCell id="zMHxKu56YJylVByiKoJj-6" value="TicketSeller" style="rounded=0;whiteSpace=wrap;html=1;" vertex="1" parent="1">
          <mxGeometry x="400" y="250" width="110" height="40" as="geometry" />
        </mxCell>
        <mxCell id="zMHxKu56YJylVByiKoJj-11" style="edgeStyle=orthogonalEdgeStyle;rounded=0;orthogonalLoop=1;jettySize=auto;html=1;exitX=1;exitY=0.5;exitDx=0;exitDy=0;entryX=0;entryY=0.5;entryDx=0;entryDy=0;" edge="1" parent="1" source="zMHxKu56YJylVByiKoJj-7" target="zMHxKu56YJylVByiKoJj-10">
          <mxGeometry relative="1" as="geometry">
            <mxPoint x="540" y="330" as="targetPoint" />
          </mxGeometry>
        </mxCell>
        <mxCell id="zMHxKu56YJylVByiKoJj-7" value="&lt;div&gt;getTicket(money)&lt;/div&gt;&lt;div&gt;getTicket(invitation)&lt;/div&gt;" style="rounded=0;whiteSpace=wrap;html=1;" vertex="1" parent="1">
          <mxGeometry x="400" y="290" width="110" height="80" as="geometry" />
        </mxCell>
        <mxCell id="zMHxKu56YJylVByiKoJj-8" style="edgeStyle=orthogonalEdgeStyle;rounded=0;orthogonalLoop=1;jettySize=auto;html=1;entryX=-0.04;entryY=0.588;entryDx=0;entryDy=0;entryPerimeter=0;" edge="1" parent="1" source="zMHxKu56YJylVByiKoJj-4" target="zMHxKu56YJylVByiKoJj-7">
          <mxGeometry relative="1" as="geometry" />
        </mxCell>
        <mxCell id="zMHxKu56YJylVByiKoJj-16" style="edgeStyle=orthogonalEdgeStyle;rounded=0;orthogonalLoop=1;jettySize=auto;html=1;" edge="1" parent="1" source="zMHxKu56YJylVByiKoJj-9">
          <mxGeometry relative="1" as="geometry">
            <mxPoint x="480" y="190" as="targetPoint" />
            <Array as="points">
              <mxPoint x="645" y="220" />
              <mxPoint x="481" y="220" />
            </Array>
          </mxGeometry>
        </mxCell>
        <mxCell id="zMHxKu56YJylVByiKoJj-9" value="TicketOffice" style="rounded=0;whiteSpace=wrap;html=1;" vertex="1" parent="1">
          <mxGeometry x="550" y="250" width="190" height="40" as="geometry" />
        </mxCell>
        <mxCell id="zMHxKu56YJylVByiKoJj-10" value="pay(money)&lt;div&gt;printTicket()&lt;/div&gt;&lt;div&gt;use(Invitation)&lt;/div&gt;" style="rounded=0;whiteSpace=wrap;html=1;" vertex="1" parent="1">
          <mxGeometry x="550" y="290" width="190" height="80" as="geometry" />
        </mxCell>
        <mxCell id="zMHxKu56YJylVByiKoJj-12" value="Ticket" style="rounded=0;whiteSpace=wrap;html=1;" vertex="1" parent="1">
          <mxGeometry x="500" y="110" width="100" height="40" as="geometry" />
        </mxCell>
        <mxCell id="zMHxKu56YJylVByiKoJj-13" value="Invitation" style="rounded=0;whiteSpace=wrap;html=1;" vertex="1" parent="1">
          <mxGeometry x="430" y="140" width="100" height="40" as="geometry" />
        </mxCell>
        <mxCell id="zMHxKu56YJylVByiKoJj-32" style="edgeStyle=orthogonalEdgeStyle;rounded=0;orthogonalLoop=1;jettySize=auto;html=1;exitX=0.5;exitY=0;exitDx=0;exitDy=0;" edge="1" parent="1" source="zMHxKu56YJylVByiKoJj-18">
          <mxGeometry relative="1" as="geometry">
            <mxPoint x="300" y="690" as="targetPoint" />
            <Array as="points">
              <mxPoint x="200" y="755" />
              <mxPoint x="260" y="755" />
              <mxPoint x="260" y="690" />
              <mxPoint x="300" y="690" />
              <mxPoint x="300" y="680" />
            </Array>
          </mxGeometry>
        </mxCell>
        <mxCell id="zMHxKu56YJylVByiKoJj-18" value="Customer" style="rounded=0;whiteSpace=wrap;html=1;" vertex="1" parent="1">
          <mxGeometry x="150" y="830" width="100" height="40" as="geometry" />
        </mxCell>
        <mxCell id="zMHxKu56YJylVByiKoJj-26" value="" style="edgeStyle=orthogonalEdgeStyle;rounded=0;orthogonalLoop=1;jettySize=auto;html=1;" edge="1" parent="1" source="zMHxKu56YJylVByiKoJj-19" target="zMHxKu56YJylVByiKoJj-25">
          <mxGeometry relative="1" as="geometry" />
        </mxCell>
        <mxCell id="zMHxKu56YJylVByiKoJj-19" value="Store" style="rounded=0;whiteSpace=wrap;html=1;" vertex="1" parent="1">
          <mxGeometry x="510" y="760" width="220" height="40" as="geometry" />
        </mxCell>
        <mxCell id="zMHxKu56YJylVByiKoJj-20" value="Deliverer" style="rounded=0;whiteSpace=wrap;html=1;" vertex="1" parent="1">
          <mxGeometry x="330" y="890" width="340" height="40" as="geometry" />
        </mxCell>
        <mxCell id="zMHxKu56YJylVByiKoJj-25" value="&lt;div&gt;&lt;span style=&quot;background-color: initial;&quot;&gt;order(menuList)&lt;/span&gt;&lt;/div&gt;" style="rounded=0;whiteSpace=wrap;html=1;" vertex="1" parent="1">
          <mxGeometry x="510" y="800" width="220" height="50" as="geometry" />
        </mxCell>
        <mxCell id="zMHxKu56YJylVByiKoJj-27" value="deliverTo(fromAddress, toAddress, menuList)" style="rounded=0;whiteSpace=wrap;html=1;" vertex="1" parent="1">
          <mxGeometry x="330" y="930" width="340" height="40" as="geometry" />
        </mxCell>
        <mxCell id="zMHxKu56YJylVByiKoJj-34" style="edgeStyle=orthogonalEdgeStyle;rounded=0;orthogonalLoop=1;jettySize=auto;html=1;exitX=1;exitY=0.5;exitDx=0;exitDy=0;" edge="1" parent="1" source="zMHxKu56YJylVByiKoJj-28">
          <mxGeometry relative="1" as="geometry">
            <mxPoint x="560" y="590" as="targetPoint" />
          </mxGeometry>
        </mxCell>
        <mxCell id="zMHxKu56YJylVByiKoJj-28" value="DeliveryCompany" style="rounded=0;whiteSpace=wrap;html=1;" vertex="1" parent="1">
          <mxGeometry x="170" y="600" width="310" height="40" as="geometry" />
        </mxCell>
        <mxCell id="zMHxKu56YJylVByiKoJj-39" style="edgeStyle=orthogonalEdgeStyle;rounded=0;orthogonalLoop=1;jettySize=auto;html=1;" edge="1" parent="1" source="zMHxKu56YJylVByiKoJj-29">
          <mxGeometry relative="1" as="geometry">
            <mxPoint x="480" y="880" as="targetPoint" />
          </mxGeometry>
        </mxCell>
        <mxCell id="zMHxKu56YJylVByiKoJj-29" value="order(menuList, money, address, storeId)&lt;div&gt;callDeliverer()&lt;br&gt;&lt;/div&gt;" style="rounded=0;whiteSpace=wrap;html=1;" vertex="1" parent="1">
          <mxGeometry x="170" y="640" width="310" height="40" as="geometry" />
        </mxCell>
        <mxCell id="zMHxKu56YJylVByiKoJj-30" value="PG" style="rounded=0;whiteSpace=wrap;html=1;" vertex="1" parent="1">
          <mxGeometry x="570" y="570" width="150" height="40" as="geometry" />
        </mxCell>
        <mxCell id="zMHxKu56YJylVByiKoJj-31" value="pay(money, accountNumber)" style="rounded=0;whiteSpace=wrap;html=1;" vertex="1" parent="1">
          <mxGeometry x="570" y="610" width="150" height="40" as="geometry" />
        </mxCell>
        <mxCell id="zMHxKu56YJylVByiKoJj-35" style="edgeStyle=orthogonalEdgeStyle;rounded=0;orthogonalLoop=1;jettySize=auto;html=1;entryX=0.455;entryY=0;entryDx=0;entryDy=0;entryPerimeter=0;" edge="1" parent="1" source="zMHxKu56YJylVByiKoJj-29" target="zMHxKu56YJylVByiKoJj-19">
          <mxGeometry relative="1" as="geometry">
            <Array as="points">
              <mxPoint x="540" y="660" />
              <mxPoint x="540" y="740" />
              <mxPoint x="610" y="740" />
            </Array>
          </mxGeometry>
        </mxCell>
      </root>
    </mxGraphModel>
  </diagram>
</mxfile>
